<?xml version="1.0" encoding="UTF-8" standalone="no"?>
<!-- Created with Inkscape (http://www.inkscape.org/) -->

<svg
   xmlns:dc="http://purl.org/dc/elements/1.1/"
   xmlns:cc="http://creativecommons.org/ns#"
   xmlns:rdf="http://www.w3.org/1999/02/22-rdf-syntax-ns#"
   xmlns:svg="http://www.w3.org/2000/svg"
   xmlns="http://www.w3.org/2000/svg"
   xmlns:sodipodi="http://sodipodi.sourceforge.net/DTD/sodipodi-0.dtd"
   xmlns:inkscape="http://www.inkscape.org/namespaces/inkscape"
   width="45"
   height="30"
   id="svg3028"
   version="1.1"
   inkscape:version="0.48.3.1 r9886"
   sodipodi:docname="Neues Dokument 2">
  <defs
     id="defs3030" />
  <sodipodi:namedview
     id="base"
     pagecolor="#ffffff"
     bordercolor="#666666"
     borderopacity="1.0"
     inkscape:pageopacity="0.0"
     inkscape:pageshadow="2"
     inkscape:zoom="3.959798"
     inkscape:cx="10.304384"
     inkscape:cy="38.798367"
     inkscape:document-units="px"
     inkscape:current-layer="layer1"
     showgrid="false"
     inkscape:window-width="1440"
     inkscape:window-height="824"
     inkscape:window-x="0"
     inkscape:window-y="24"
     inkscape:window-maximized="1" />
  <metadata
     id="metadata3033">
    <rdf:RDF>
      <cc:Work
         rdf:about="">
        <dc:format>image/svg+xml</dc:format>
        <dc:type
           rdf:resource="http://purl.org/dc/dcmitype/StillImage" />
        <dc:title></dc:title>
      </cc:Work>
    </rdf:RDF>
  </metadata>
  <g
     inkscape:label="Ebene 1"
     inkscape:groupmode="layer"
     id="layer1"
     transform="translate(0,-1022.3622)">
    <g
       id="g3826"
       transform="translate(0.25849689,-1.8286005e-7)">
      <polygon
         transform="matrix(0.37709287,0,0,0.37709287,0,1022.3622)"
         style="fill:#ffffff;fill-opacity:1"
         points="117.62,67.055 101.347,67.055 101.443,79.556 91.557,67.211 91.581,67.207 9.398,67.288 0,58.982 0,0 111.448,0 117.963,8.23 "
         id="polygon5" />
      <g
         style="fill:#e4342d;fill-opacity:1"
         transform="matrix(0.37709287,0,0,0.37709287,0,1022.3622)"
         id="g7">
        <path
           style="fill:#e4342d;fill-opacity:1"
           inkscape:connector-curvature="0"
           d="M 47.455,23.75 37.271,47.698 c -0.062,0.124 -0.124,0.308 -0.247,0.494 0,0.062 -0.062,0.062 -0.062,0.062 -0.062,0.124 -0.185,0.247 -0.308,0.37 -0.062,0.062 -0.124,0.062 -0.124,0.062 -0.124,0.124 -0.247,0.247 -0.37,0.308 0,0.062 -0.062,0.062 -0.062,0.124 -0.185,0.124 -0.308,0.247 -0.556,0.309 0,0 -0.062,0 -0.062,0.061 -0.124,0 -0.308,0.062 -0.494,0.124 -0.062,0 -0.062,0 -0.123,0 -0.185,0.062 -0.371,0.062 -0.617,0.062 -0.185,0 -0.37,0 -0.556,-0.062 -0.062,0 -0.062,0 -0.124,0 -0.124,-0.062 -0.247,-0.124 -0.432,-0.124 -0.062,-0.061 -0.062,-0.061 -0.062,-0.061 -0.062,0 -0.062,0 -0.062,0 -0.185,-0.062 -0.37,-0.185 -0.556,-0.371 0,0 0,0 0,-0.062 -0.185,-0.062 -0.247,-0.185 -0.37,-0.308 0,0 -0.124,0 -0.124,-0.062 -0.123,-0.124 -0.247,-0.247 -0.308,-0.37 0,0 -0.062,0 -0.062,-0.062 -0.124,-0.185 -0.185,-0.37 -0.247,-0.494 L 26.84,37.02 22.458,47.698 c -0.062,0.124 -0.185,0.308 -0.309,0.494 v 0.062 c -0.123,0.124 -0.247,0.247 -0.37,0.37 0,0.062 -0.062,0.062 -0.062,0.062 -0.124,0.124 -0.247,0.247 -0.37,0.37 -0.247,0.185 -0.37,0.309 -0.556,0.371 h -0.124 c 0,0 -0.062,0 -0.062,0.061 -0.123,0 -0.308,0.062 -0.37,0.124 -0.124,0 -0.124,0 -0.124,0 -0.247,0.062 -0.432,0.062 -0.617,0.062 -0.247,0 -0.432,0 -0.617,-0.062 -0.062,0 -0.062,0 -0.185,0 -0.124,-0.062 -0.247,-0.124 -0.37,-0.124 -0.062,-0.061 -0.062,-0.061 -0.124,-0.061 -0.185,-0.062 -0.432,-0.185 -0.556,-0.371 -0.062,0 -0.062,0 -0.062,-0.062 -0.061,-0.062 -0.185,-0.185 -0.37,-0.308 0,0 0,0 -0.123,-0.062 -0.062,-0.124 -0.185,-0.247 -0.247,-0.37 -0.062,0 -0.062,0 -0.062,-0.062 -0.124,-0.185 -0.185,-0.37 -0.308,-0.494 L 6.348,23.75 c -0.74,-1.667 0.062,-3.518 1.79,-4.259 1.481,-0.679 3.395,0.062 4.073,1.852 l 7.284,16.604 4.32,-10.308 c 0.556,-1.235 1.728,-1.975 3.024,-1.975 1.358,0 2.531,0.74 3.024,1.975 l 4.382,10.308 7.283,-16.604 c 0.617,-1.79 2.592,-2.53 4.136,-1.852 1.667,0.741 2.531,2.592 1.791,4.259 z"
           id="path9" />
        <path
           style="fill:#e4342d;fill-opacity:1"
           inkscape:connector-curvature="0"
           d="M 51.653,46.278 V 9.862 c 0,-1.852 1.481,-3.395 3.395,-3.395 1.913,0 3.456,1.543 3.456,3.395 V 31.217 L 71.157,18.564 c 1.296,-1.296 3.518,-1.296 4.814,0 1.358,1.358 1.358,3.518 0,4.814 l -9.259,9.259 9.506,11.418 c 1.172,1.481 0.988,3.642 -0.494,4.815 -0.617,0.556 -1.42,0.802 -2.16,0.802 -0.988,0 -1.975,-0.432 -2.592,-1.234 l -9.074,-10.987 -3.395,3.395 v 5.432 c 0,1.852 -1.543,3.395 -3.456,3.395 -1.913,0 -3.394,-1.543 -3.394,-3.395 z"
           id="path11" />
        <path
           style="fill:#e4342d;fill-opacity:1"
           inkscape:connector-curvature="0"
           d="M 100.27,42.911 H 97.659 95.761 V 32.856 23.698 h 1.641 3.376 c 1.528,-0.336 2.63,-1.658 2.63,-3.306 0,-1.852 -1.481,-3.456 -3.395,-3.456 h -2.611 -8.174 -5.245 c -1.528,0.336 -2.63,1.658 -2.63,3.306 0,1.852 1.481,3.456 3.395,3.456 H 89 v 9.158 10.054 h -4.76 c -1.528,0.336 -2.63,1.658 -2.63,3.306 0,1.852 1.481,3.456 3.395,3.456 h 4.48 8.174 3.376 c 1.528,-0.336 2.63,-1.658 2.63,-3.306 -0.001,-1.851 -1.482,-3.455 -3.395,-3.455 z"
           id="path13" />
      </g>
    </g>
  </g>
</svg>
