<?xml version="1.0" encoding="utf-8"?>
<!-- Generator: Adobe Illustrator 17.0.0, SVG Export Plug-In . SVG Version: 6.00 Build 0)  -->
<!DOCTYPE svg PUBLIC "-//W3C//DTD SVG 1.1//EN" "http://www.w3.org/Graphics/SVG/1.1/DTD/svg11.dtd">
<svg version="1.1" id="Ebene_1" xmlns="http://www.w3.org/2000/svg" xmlns:xlink="http://www.w3.org/1999/xlink" x="0px" y="0px"
	 width="176.796px" height="100.334px" viewBox="0 0 176.796 100.334" enable-background="new 0 0 176.796 100.334"
	 xml:space="preserve">
<g>
	<polygon fill="#E4342D" points="101.347,67.055 101.443,79.556 91.557,67.211 91.581,67.207 9.398,67.288 0,58.982 0,0 111.448,0 
		117.963,8.23 117.62,67.055 	"/>
	<g>
		<path fill="#FFFFFF" d="M47.455,23.75L37.271,47.698c-0.062,0.124-0.124,0.308-0.247,0.494c0,0.062-0.062,0.062-0.062,0.062
			c-0.062,0.124-0.185,0.247-0.308,0.37c-0.062,0.062-0.124,0.062-0.124,0.062c-0.124,0.124-0.247,0.247-0.37,0.308
			c0,0.062-0.062,0.062-0.062,0.124c-0.185,0.124-0.308,0.247-0.556,0.309c0,0-0.062,0-0.062,0.061
			c-0.124,0-0.308,0.062-0.494,0.124c-0.062,0-0.062,0-0.123,0c-0.185,0.062-0.371,0.062-0.617,0.062c-0.185,0-0.37,0-0.556-0.062
			c-0.062,0-0.062,0-0.124,0c-0.124-0.062-0.247-0.124-0.432-0.124c-0.062-0.061-0.062-0.061-0.062-0.061c-0.062,0-0.062,0-0.062,0
			c-0.185-0.062-0.37-0.185-0.556-0.371c0,0,0,0,0-0.062c-0.185-0.062-0.247-0.185-0.37-0.308c0,0-0.124,0-0.124-0.062
			c-0.123-0.124-0.247-0.247-0.308-0.37c0,0-0.062,0-0.062-0.062c-0.124-0.185-0.185-0.37-0.247-0.494L26.84,37.02l-4.382,10.678
			c-0.062,0.124-0.185,0.308-0.309,0.494v0.062c-0.123,0.124-0.247,0.247-0.37,0.37c0,0.062-0.062,0.062-0.062,0.062
			c-0.124,0.124-0.247,0.247-0.37,0.37c-0.247,0.185-0.37,0.309-0.556,0.371h-0.124c0,0-0.062,0-0.062,0.061
			c-0.123,0-0.308,0.062-0.37,0.124c-0.124,0-0.124,0-0.124,0c-0.247,0.062-0.432,0.062-0.617,0.062c-0.247,0-0.432,0-0.617-0.062
			c-0.062,0-0.062,0-0.185,0c-0.124-0.062-0.247-0.124-0.37-0.124c-0.062-0.061-0.062-0.061-0.124-0.061
			c-0.185-0.062-0.432-0.185-0.556-0.371c-0.062,0-0.062,0-0.062-0.062c-0.061-0.062-0.185-0.185-0.37-0.308c0,0,0,0-0.123-0.062
			c-0.062-0.124-0.185-0.247-0.247-0.37c-0.062,0-0.062,0-0.062-0.062c-0.124-0.185-0.185-0.37-0.308-0.494L6.348,23.75
			c-0.74-1.667,0.062-3.518,1.79-4.259c1.481-0.679,3.395,0.062,4.073,1.852l7.284,16.604l4.32-10.308
			c0.556-1.235,1.728-1.975,3.024-1.975c1.358,0,2.531,0.74,3.024,1.975l4.382,10.308l7.283-16.604
			c0.617-1.79,2.592-2.53,4.136-1.852C47.331,20.232,48.195,22.083,47.455,23.75z"/>
		<path fill="#FFFFFF" d="M51.653,46.278V9.862c0-1.852,1.481-3.395,3.395-3.395c1.913,0,3.456,1.543,3.456,3.395v21.355
			l12.653-12.653c1.296-1.296,3.518-1.296,4.814,0c1.358,1.358,1.358,3.518,0,4.814l-9.259,9.259l9.506,11.418
			c1.172,1.481,0.988,3.642-0.494,4.815c-0.617,0.556-1.42,0.802-2.16,0.802c-0.988,0-1.975-0.432-2.592-1.234l-9.074-10.987
			l-3.395,3.395v5.432c0,1.852-1.543,3.395-3.456,3.395C53.134,49.673,51.653,48.13,51.653,46.278z"/>
		<path fill="#FFFFFF" d="M100.27,42.911h-2.611h-1.898V32.856v-9.158h1.641h3.376c1.528-0.336,2.63-1.658,2.63-3.306
			c0-1.852-1.481-3.456-3.395-3.456h-2.611h-8.174h-5.245c-1.528,0.336-2.63,1.658-2.63,3.306c0,1.852,1.481,3.456,3.395,3.456
			h4.252v9.158v10.054h-4.76c-1.528,0.336-2.63,1.658-2.63,3.306c0,1.852,1.481,3.456,3.395,3.456h4.48h8.174h3.376
			c1.528-0.336,2.63-1.658,2.63-3.306C103.664,44.515,102.183,42.911,100.27,42.911z"/>
	</g>
</g>
<g>
	<path fill="#E4342D" d="M104.281,90.519h-1.723v3.039c0,0.421-0.351,0.771-0.785,0.771c-0.42,0-0.77-0.35-0.77-0.771v-8.264
		c0-0.435,0.35-0.771,0.77-0.771h0.015h2.493c1.667,0,3.012,1.345,3.012,3.012C107.293,89.175,105.948,90.519,104.281,90.519z
		 M102.559,88.965h1.723c0.812,0,1.442-0.645,1.457-1.429c-0.015-0.812-0.645-1.457-1.457-1.457h-1.723V88.965z"/>
	<path fill="#E4342D" d="M116.897,85.743c0.869,0.924,1.415,2.156,1.415,3.543c0,1.388-0.546,2.634-1.415,3.544
		c-0.826,0.911-2.059,1.499-3.348,1.499c-1.345,0-2.577-0.588-3.432-1.499c-0.868-0.91-1.387-2.156-1.387-3.544
		c0-1.387,0.519-2.619,1.387-3.543c0.854-0.925,2.087-1.499,3.432-1.499C114.839,84.244,116.071,84.818,116.897,85.743z
		 M116.716,89.286c0-0.952-0.378-1.835-0.953-2.451c-0.588-0.63-1.372-0.994-2.213-0.994c-0.896,0-1.681,0.364-2.27,0.994
		c-0.588,0.616-0.952,1.499-0.952,2.451c0,0.953,0.364,1.836,0.952,2.438c0.589,0.631,1.373,1.009,2.27,1.009
		c0.841,0,1.625-0.378,2.213-1.009C116.338,91.122,116.716,90.239,116.716,89.286z"/>
	<path fill="#E4342D" d="M120.646,93.558v-8.264c0-0.435,0.336-0.771,0.771-0.771h1.652c2.704,0,4.889,2.199,4.889,4.889
		c0,2.717-2.185,4.916-4.889,4.916h-1.652C120.981,94.329,120.646,93.979,120.646,93.558z M122.2,92.774h0.868
		c1.85-0.014,3.334-1.499,3.334-3.361c0-1.835-1.484-3.334-3.334-3.334H122.2V92.774z"/>
	<path fill="#E4342D" d="M130.277,89.286c0.014-2.773,2.339-5.028,5.141-5.042c1.232,0,2.354,0.406,3.235,1.093
		c0.337,0.279,0.393,0.77,0.141,1.12c-0.28,0.351-0.799,0.406-1.121,0.154c-0.616-0.505-1.387-0.771-2.255-0.771
		c-0.967,0-1.863,0.393-2.521,1.009c-0.63,0.644-1.022,1.484-1.022,2.437c0,0.953,0.393,1.821,1.022,2.438
		c0.658,0.616,1.555,1.009,2.521,1.009c0.868,0,1.625-0.266,2.255-0.771c0.322-0.238,0.841-0.182,1.121,0.154
		c0.252,0.351,0.196,0.854-0.141,1.12c-0.882,0.687-2.003,1.093-3.235,1.093C132.616,94.329,130.291,92.074,130.277,89.286z"/>
	<path fill="#E4342D" d="M146.296,92.018h-3.403l-0.687,1.82c-0.126,0.309-0.42,0.49-0.729,0.49c-0.098,0-0.182-0.014-0.267-0.042
		c-0.406-0.154-0.602-0.603-0.462-1.009l3.096-8.25c0.126-0.309,0.435-0.504,0.742-0.49c0.322-0.014,0.616,0.182,0.743,0.49
		l3.095,8.25c0.141,0.406-0.056,0.854-0.462,1.009c-0.07,0.028-0.168,0.042-0.266,0.042c-0.309,0-0.603-0.182-0.715-0.49
		L146.296,92.018z M145.722,90.477l-1.135-3.012l-1.135,3.012H145.722z"/>
	<path fill="#E4342D" d="M149.793,91.891c0.252-0.308,0.714-0.35,1.022-0.098c0.616,0.504,1.681,1.093,2.676,1.078
		c0.7,0,1.33-0.21,1.751-0.518c0.42-0.309,0.602-0.658,0.602-1.009c0-0.182-0.042-0.309-0.126-0.448s-0.21-0.28-0.42-0.42
		c-0.406-0.267-1.093-0.505-1.919-0.658h-0.028c-0.658-0.127-1.274-0.295-1.807-0.547s-0.994-0.603-1.303-1.093
		c-0.21-0.336-0.322-0.729-0.322-1.148c0-0.84,0.477-1.568,1.121-2.045c0.658-0.477,1.513-0.742,2.423-0.742
		c1.345,0,2.339,0.658,3.054,1.12c0.322,0.225,0.42,0.673,0.196,0.995c-0.21,0.336-0.658,0.434-0.995,0.21
		c-0.714-0.477-1.4-0.896-2.255-0.896c-0.63,0-1.19,0.196-1.568,0.476c-0.379,0.28-0.533,0.589-0.533,0.883
		c0,0.168,0.028,0.28,0.099,0.393s0.196,0.238,0.378,0.364c0.364,0.252,0.995,0.476,1.751,0.616h0.028
		c0.714,0.14,1.372,0.322,1.933,0.588c0.574,0.28,1.079,0.645,1.401,1.163c0.21,0.336,0.336,0.756,0.336,1.19
		c0,0.896-0.505,1.667-1.205,2.171c-0.687,0.505-1.597,0.799-2.591,0.799c-1.513-0.014-2.788-0.771-3.586-1.4
		C149.597,92.662,149.555,92.2,149.793,91.891z"/>
	<path fill="#E4342D" d="M165.225,86.079h-2.228v7.479c0,0.435-0.336,0.771-0.771,0.771c-0.42,0-0.771-0.336-0.771-0.771v-7.479
		h-2.213c-0.435,0-0.771-0.364-0.771-0.784c0-0.435,0.336-0.771,0.771-0.771h5.981c0.42,0,0.771,0.336,0.771,0.771
		C165.995,85.715,165.645,86.079,165.225,86.079z"/>
</g>
</svg>
